<svg width="1440" height="1392" fill="none" xmlns="http://www.w3.org/2000/svg"><path fill="#fff" d="M0 776h1440v616H0z"/><path fill-rule="evenodd" clip-rule="evenodd" d="M1441 70v708l-290.97 161.877a200.026 200.026 0 01-144.71 19.511L1 714V70h1440z" fill="url(#paint0_linear)"/><g filter="url(#filter0_d)"><path fill-rule="evenodd" clip-rule="evenodd" d="M705.936 344.476c11.562-40.33-11.743-82.404-52.064-93.996L-2.585 61.746l-.008 689.728L471.309 887.22c40.341 11.555 82.409-11.773 93.973-52.112l140.654-490.632z" fill="#4250BF"/></g><g filter="url(#filter1_d)"><path fill-rule="evenodd" clip-rule="evenodd" d="M-6 0v344.664l1013.46 269.542c40.21 10.693 81.54-12.927 92.73-52.995L1257 0H-6z" fill="#3947B6"/></g><defs><filter id="filter0_d" x="-132.594" y="-64.254" width="971.492" height="1088.43" filterUnits="userSpaceOnUse" color-interpolation-filters="sRGB"><feFlood flood-opacity="0" result="BackgroundImageFix"/><feColorMatrix in="SourceAlpha" values="0 0 0 0 0 0 0 0 0 0 0 0 0 0 0 0 0 0 127 0"/><feOffset dy="4"/><feGaussianBlur stdDeviation="65"/><feColorMatrix values="0 0 0 0 0.14902 0 0 0 0 0.2 0 0 0 0 0.588235 0 0 0 1 0"/><feBlend in2="BackgroundImageFix" result="effect1_dropShadow"/><feBlend in="SourceGraphic" in2="effect1_dropShadow" result="shape"/></filter><filter id="filter1_d" x="-112" y="-95" width="1475" height="828.777" filterUnits="userSpaceOnUse" color-interpolation-filters="sRGB"><feFlood flood-opacity="0" result="BackgroundImageFix"/><feColorMatrix in="SourceAlpha" values="0 0 0 0 0 0 0 0 0 0 0 0 0 0 0 0 0 0 127 0"/><feOffset dy="11"/><feGaussianBlur stdDeviation="53"/><feColorMatrix values="0 0 0 0 0.164706 0 0 0 0 0.219608 0 0 0 0 0.615686 0 0 0 1 0"/><feBlend in2="BackgroundImageFix" result="effect1_dropShadow"/><feBlend in="SourceGraphic" in2="effect1_dropShadow" result="shape"/></filter><linearGradient id="paint0_linear" x1="600.916" y1="636.82" x2="1457.24" y2="533.708" gradientUnits="userSpaceOnUse"><stop stop-color="#3847B5"/><stop offset="1" stop-color="#253194"/></linearGradient></defs></svg>