<svg width="320" height="870" fill="none" xmlns="http://www.w3.org/2000/svg"><path fill="#fff" d="M-201 516h827v354h-827z"/><path fill-rule="evenodd" clip-rule="evenodd" d="M627 110v407.022L489.114 593.81a199.999 199.999 0 01-144.823 19.542L-200 480.229V110h827z" fill="url(#paint0_linear)"/><g filter="url(#filter0_d)"><path fill-rule="evenodd" clip-rule="evenodd" d="M195.994 299.279c11.561-40.331-11.744-82.406-52.065-93.999l-346.03-99.491-.04 396.352 241.146 69.078c40.341 11.556 82.409-11.771 93.972-52.11l63.017-219.83z" fill="#4250BF"/></g><g filter="url(#filter1_d)"><path fill-rule="evenodd" clip-rule="evenodd" d="M-205 70v198.238l551.701 146.819c40.212 10.701 81.553-12.925 92.745-53.004L521 70h-726z" fill="#3947B6"/></g><defs><filter id="filter0_d" x="-332.141" y="-20.21" width="661.097" height="728.388" filterUnits="userSpaceOnUse" color-interpolation-filters="sRGB"><feFlood flood-opacity="0" result="BackgroundImageFix"/><feColorMatrix in="SourceAlpha" values="0 0 0 0 0 0 0 0 0 0 0 0 0 0 0 0 0 0 127 0"/><feOffset dy="4"/><feGaussianBlur stdDeviation="65"/><feColorMatrix values="0 0 0 0 0.14902 0 0 0 0 0.2 0 0 0 0 0.588235 0 0 0 1 0"/><feBlend in2="BackgroundImageFix" result="effect1_dropShadow"/><feBlend in="SourceGraphic" in2="effect1_dropShadow" result="shape"/></filter><filter id="filter1_d" x="-311" y="-25" width="938" height="559.631" filterUnits="userSpaceOnUse" color-interpolation-filters="sRGB"><feFlood flood-opacity="0" result="BackgroundImageFix"/><feColorMatrix in="SourceAlpha" values="0 0 0 0 0 0 0 0 0 0 0 0 0 0 0 0 0 0 127 0"/><feOffset dy="11"/><feGaussianBlur stdDeviation="53"/><feColorMatrix values="0 0 0 0 0.164706 0 0 0 0 0.219608 0 0 0 0 0.615686 0 0 0 1 0"/><feBlend in2="BackgroundImageFix" result="effect1_dropShadow"/><feBlend in="SourceGraphic" in2="effect1_dropShadow" result="shape"/></filter><linearGradient id="paint0_linear" x1="144.535" y1="435.859" x2="636.344" y2="376.7" gradientUnits="userSpaceOnUse"><stop stop-color="#3847B5"/><stop offset="1" stop-color="#253194"/></linearGradient></defs></svg>