<svg width="768" height="1392" fill="none" xmlns="http://www.w3.org/2000/svg"><path fill="#fff" d="M-243.707 776h1440v616h-1440z"/><path fill-rule="evenodd" clip-rule="evenodd" d="M1197.29 70v708L906.319 939.877a200 200 0 01-144.702 19.511L-242.707 714V70H1197.29z" fill="url(#paint0_linear)"/><g filter="url(#filter0_d)"><path fill-rule="evenodd" clip-rule="evenodd" d="M462.229 344.476c11.562-40.33-11.743-82.404-52.064-93.996L-246.292 61.746l-.008 689.728L227.602 887.22c40.341 11.555 82.409-11.773 93.973-52.112l140.654-490.632z" fill="#4250BF"/></g><g filter="url(#filter1_d)"><path fill-rule="evenodd" clip-rule="evenodd" d="M-249.707 0v344.664L763.754 614.206c40.205 10.693 81.536-12.927 92.731-52.995L1013.29 0H-249.707z" fill="#3947B6"/></g><defs><filter id="filter0_d" x="-376.301" y="-64.254" width="971.492" height="1088.43" filterUnits="userSpaceOnUse" color-interpolation-filters="sRGB"><feFlood flood-opacity="0" result="BackgroundImageFix"/><feColorMatrix in="SourceAlpha" values="0 0 0 0 0 0 0 0 0 0 0 0 0 0 0 0 0 0 127 0"/><feOffset dy="4"/><feGaussianBlur stdDeviation="65"/><feColorMatrix values="0 0 0 0 0.14902 0 0 0 0 0.2 0 0 0 0 0.588235 0 0 0 1 0"/><feBlend in2="BackgroundImageFix" result="effect1_dropShadow"/><feBlend in="SourceGraphic" in2="effect1_dropShadow" result="shape"/></filter><filter id="filter1_d" x="-355.707" y="-95" width="1475" height="828.777" filterUnits="userSpaceOnUse" color-interpolation-filters="sRGB"><feFlood flood-opacity="0" result="BackgroundImageFix"/><feColorMatrix in="SourceAlpha" values="0 0 0 0 0 0 0 0 0 0 0 0 0 0 0 0 0 0 127 0"/><feOffset dy="11"/><feGaussianBlur stdDeviation="53"/><feColorMatrix values="0 0 0 0 0.164706 0 0 0 0 0.219608 0 0 0 0 0.615686 0 0 0 1 0"/><feBlend in2="BackgroundImageFix" result="effect1_dropShadow"/><feBlend in="SourceGraphic" in2="effect1_dropShadow" result="shape"/></filter><linearGradient id="paint0_linear" x1="357.209" y1="636.82" x2="1213.54" y2="533.708" gradientUnits="userSpaceOnUse"><stop stop-color="#3847B5"/><stop offset="1" stop-color="#253194"/></linearGradient></defs></svg>